<?xml version="1.0" encoding="UTF-8"?><svg id="Layer_2" xmlns="http://www.w3.org/2000/svg" viewBox="0 0 273.67 74.66"><defs><style>.cls-1{fill:#495e57;}.cls-2{fill:#f4ce14;}</style></defs><g id="Layer_1-2"><path class="cls-1" d="M37.39,5.02l-.82.79-1.13.82-2.54,1.28-1.37.45-1.32.5-1.38.38-1.39.33-1.38.25-1.48.12-.32-.16-1.07-.31-1.11-.46-1.07-.59-1.1-.22-1.15-.48-.21-.12-.71-.87-1.12-1-1.08-1.14-.22-.11.66-.1h.07c.19-.01.41-.02.65-.04l.41-.02.47-.02h1.5s1.48-.13,1.48-.13l1.5.06,1.49-.06h1.51s1.48-.18,1.48-.18l1.5.11,1.51-.02,1.4-.05v-.13s.01-.08.01-.08l-1.17-.07h-.12s-.17-.04-.17-.04h-.06s-1.15-.22-1.15-.22l-1.19-.02h-.19l-.06-.02h-.02l-1.26-.34h-.02l-1.39.07-1.4-.17h-1.42l-1.26.24h-.02c-.07,0-.14.01-.21.01h-.04l-1.23-.07h-.01s-1.38.28-1.38.28l-1.38.25-.99.54-.53-.25.92-.46,1.04-.92,1.31-.48,1.27-.62,1.19-.69,1.39-.25,1.28-.5,2.73-.06,1.34.1,2.8.59,1.34.62,1.37.51,1.38.28,1.33.42,1.27.56.73.88.29,1.06Z"/><path class="cls-2" d="M44.18,40.41l-.14-1.2.12-1.31-.27-1.18-.45-1.26.18-1.31-.4-1.11-.28-1.28-1.34-3.45-.22-1.28-1.37-2.17-.32-1.16-.77-.9-1.25-2.22-1.07-.83-1.39-2.02-.97-.73-1.85-1.82-1.99-1.46-1.2-.63-.8-.87-1.23-.44-1.03-.74-.93-.81-.64-.31-.32-.16-1.07-.31-1.11-.46-1.07-.59-1.1-.22-1.15-.48-.21-.12-.71-.87-1.12-1.01-1.08-1.14-.22-.11-.1-.04h-.02l-.29-.16-.09-.04-.53-.25-.53-.25-1.82.62-.05.07-.41-.04-.93.52-.87.83-.95.72-.45,1.05-.68,1.02-.1,2.37-.41,2.67-.69,1.01-.29,1.26-.59,1.1-.5,1.13-.33,1.15-.41,1.22-.63,1.27-.86.98-.52,1.04-.27,1.15-.4,1.37-.69.99-.25,1.27-.52,1.04.19,1.25-.46,3.68.33,1.14.24,1.35-.29,1.26.27,1.13.13,1.29v1.21l.47,1.1.27,1.28.22,1.23.45,1.06.3,1.27.26,1.25.31,1.1.68.98.53,1.15.75.9,1.51,2.04.47,1.17,1.34,1.82,1.07.82.62.99.94.86,1.74,2.09.97.81,1.07.73,1.03.96.87,1.01,1.05.69,1.15.58,3.63,1.39,1.22.34,1.44.28,1.09.76,1.38.38,1.3.81.71.93,1.05.51,1.86,1.51.98-.08,1.02-.05.79-.28.28-.86.42-.93-.27-1.03.11-1.2.65-2.25.54-1.21.78-.75.38-1.19.35-1.39.65-1.17.7-1.1.23-1.17.96-2.41.59-2.4.46-1.23.52-1.14.15-1.19.35-1.28.09-1.19.39-2.52.46-1.19-.33-1.28.41-1.3.08-2.47ZM25.32,27.5l-.68.12-1.07-.4-1.17-.73-1.39-.42-1.17-.83-3.84-1.68-1.36-.88-1.34-.56-.99-.87-.9-1.16-1.44-2.25-.21-1.32-.31-1.27-.1-1.33.87-3.98.46-1.26.86-1.19.5-1.21.7-1,1.07-.36.84.38.29.13.5.52.53.56,1.1.99.99,1.2,1.39.9.88,1.09,1,1.03,1,.85.84,1.06.56,1.29.63,1.14.1,1.4.35,1.23.12,1.48.31,1.28-.14,1.4.23,2.92.35,1.11-.36.63Z"/><path class="cls-1" d="M25.33,25.76l-.23-2.92.14-1.4-.31-1.28-.12-1.48-.35-1.23-.1-1.4-.63-1.14-.56-1.29-.84-1.07-1-.85-1-1.03-.88-1.09-1.39-.9-.99-1.2-1.1-.99-.53-.56-.5-.52-.29-.13-.83-.38-1.07.36-.7,1-.5,1.21-.86,1.19-.46,1.26-.87,3.98.1,1.33.32,1.27.21,1.32,1.44,2.25.9,1.16.99.87,1.34.56,1.36.88,3.84,1.68,1.18.83,1.39.42,1.17.73,1.07.4.68-.12.36-.63-.35-1.11ZM21.75,22.65c-.1-.07-.19-.14-.3-.23l-.18-.13-.33-.25-.16-.19c-.41-.42-.82-.93-1.24-1.51l-.05-.07-.32-.39-.69-1.17-.02-.04-.76-1.16-.71-1.21-.54-1.29-.61-1.25-.59-1.26-.56-1.27-.5-1.29-.43-1.75,1.23,1.42.67,1.37.82,1.23.81,1.28.58,1.42.52.97.19.34.81,1.26.75,1.31.52,1.38v.05s.05.06.05.06l.76,1.19,1.03,1.83-.76-.61Z"/><path class="cls-2" d="M22.51,23.25l-.76-.6c-.1-.07-.19-.15-.3-.23l-.18-.13-.33-.25-.16-.19c-.41-.42-.82-.93-1.24-1.51l-.05-.07-.31-.39-.69-1.17-.02-.04-.76-1.16-.71-1.21-.54-1.29-.61-1.25-.59-1.26-.56-1.27-.5-1.29-.43-1.75,1.23,1.42.67,1.37.82,1.23.81,1.28.58,1.42.52.97.19.34.81,1.26.75,1.31.52,1.38v.05s.05.06.05.06l.76,1.19,1.03,1.83Z"/><path class="cls-2" d="M27.18,3.44h-.15l-.06-.02c.07.01.13.01.21.02"/><path class="cls-2" d="M31.17,3.87h-.07.07"/><path class="cls-2" d="M31.09,3.79v.22s-1.42.05-1.42.05l-1.51.02-1.5-.11-1.48.17h-1.51s-1.49.07-1.49.07l-1.5-.06-1.48.15h-1.5s-.47.01-.47.01l-.41.02c-.24.01-.46.02-.65.04h-.07l-.67.1-.1-.04h-.02l-.29-.16-.08-.04.99-.55,1.38-.25,1.38-.29h.01s1.24.08,1.24.08h.04c.06,0,.13-.01.21-.01h.02l1.26-.24h1.42l1.4.17,1.39-.07h.02l1.26.34h.02l.06.02h.19l1.19.02,1.15.21h.06s.17.04.17.04h.12s1.17.08,1.17.08Z"/><path class="cls-1" d="M73.29,42.15l-.27,3.11-.36,1.59c-.03.11-.1.21-.19.27-.1.06-.23.07-.34.04h-.03s-2.83.09-2.83.09l-1.56-.09h-.24s-.02,0-.02,0l-1.23.03h-.13l-1.42.02-1.41-.04-1.39.02h0c-.11,0-.22-.04-.3-.12-.08-.08-.12-.19-.12-.3l.04-1.01c0-.18.13-.34.3-.39l1.09-.31.1-2.95v-1.46s-.12-1.46-.12-1.46l.13-3.02-.06-1.46-1.2-.31c-.2-.05-.33-.24-.31-.44l.06-.99c.02-.22.19-.39.42-.39l1.53-.02,3.09.09,1.51-.07c.12,0,.23.04.31.12.09.09.13.2.12.31l-.03,1c0,.19-.14.36-.32.4l-1.67.37.03.63c0,.09-.03.17-.07.24l-.05,2.01.05,2.95-.05,1.52.12,1.45v1.32s1.04.04,1.04.04l1.39-.02,1.09-.09.19-.33.66-1.26.6-1.32c.07-.16.23-.26.41-.24l1.05.07c.11,0,.22.06.3.14.07.09.1.2.1.31"/><path class="cls-1" d="M86.06,45.73l-.1,1.1c-.02.22-.21.37-.43.38l-1.42-.04-1.37.05-1.44-.08-1.38.05c-.11,0-.23-.04-.31-.12-.08-.09-.12-.21-.11-.32l.06-1.03c0-.18.13-.32.3-.38l1.09-.32v-.48s0-.19,0-.19c0-.05,0-.1.02-.14l.09-2.15-.1-1.43.02-3.01-.04-1.48.04-1.08v-.42s-1.21-.23-1.21-.23c-.22-.04-.37-.24-.34-.45l.1-1.1c.02-.22.19-.41.43-.38l1.42.04,1.38-.04,1.44.07,1.38-.04c.14,0,.24.03.31.12.09.09.13.2.12.32l-.06,1.02c-.02.18-.13.33-.3.38l-1.11.32-.02.41.02.26c0,.06,0,.13-.03.18l-.03.6.08,2.94-.11,3.01.07,2.23v.03l.05.69v.03l1.19.23c.21.03.36.24.34.45"/><path class="cls-1" d="M104.97,35.76l-.05,1.38c0,.22-.17.39-.39.41l-1.07.07c-.2,0-.35-.1-.42-.26l-1.05-2.5-.92-.04-.88.07.1,1.19-.03,3.01.03,1.47-.05,1.52.06,1.46-.02,1.5,1.41.26c.22.03.36.24.34.45l-.11,1.05c-.02.22-.21.38-.44.38l-1.51-.07-1.46.11-3.07-.03c-.12,0-.23-.05-.31-.14-.08-.09-.11-.21-.11-.32l.1-1c.02-.17.14-.32.31-.37l1.29-.34-.03-.68c0-.09.03-.19.09-.27v-.51s-.06-1.45-.06-1.45l.06-1.53-.1-1.44v-1.52s.11-2.73.11-2.73l-1.12.03-.61-.02-.1.24-1.09,2.16c-.06.14-.2.23-.35.24l-1.05.07c-.11,0-.23-.04-.31-.11-.09-.07-.13-.18-.14-.3l-.03-1.44.26-2.89c.02-.14.09-.26.21-.32.11-.07.24-.08.36-.03l1.32.04,1.4-.08,1.49.07,1.4-.1h1.47s2.92.11,2.92.11l1.26-.07c.12-.06.25-.05.37,0,.08.04.14.1.18.18.05.08.08.17.07.27l.24,1.3v1.5Z"/><path class="cls-1" d="M123.6,35.73l-.05,1.53c0,.12-.05.23-.14.3-.09.08-.18.11-.32.1l-1.07-.1c-.15-.02-.27-.1-.34-.23l-1.17-2.48-.81.04-.87-.03-.05,1.27.1,1.44.02,1.52-.12,2.99.09,1.45v1.53s1.4.29,1.4.29c.22.04.36.24.33.46l-.11.95c-.02.21-.19.37-.39.38l-1.47.06-1.55-.06-1.46.1-1.53-.1c-.23,0-.4-.2-.4-.44l.04-.94c0-.17.12-.33.29-.38l1.34-.38v-.68l-.04-2.21.09-1.52-.05-1.44v-1.52s-.05-2.7-.05-2.7l-1.65-.08-1.07,2.56c-.07.17-.25.26-.43.25l-1.09-.1c-.2-.02-.37-.19-.38-.39l-.08-1.37.06-1.46.22-1.48c.02-.13.1-.24.22-.31.11-.06.24-.07.37-.02l2.72-.04,1.47.09,1.4-.06,1.46.02,2.89-.07,1.5.05c.13,0,.25.07.33.18.06.09.08.19.07.3l.18,1.29.11,1.45Z"/><path class="cls-1" d="M141.46,42.09l-.07,1.6-.22,1.6-.35,1.45c0,.1-.02.19-.08.27-.08.11-.2.18-.34.18h-1.51s-1.53-.06-1.53-.06h-1.7s-.08,0-.1,0l-1.28-.02h-.15l-1.29.12-1.46-.08-1.36-.02c-.11,0-.23-.04-.31-.13-.08-.09-.11-.2-.11-.32l.07-.95c.02-.17.13-.31.3-.37l1.1-.38-.08-2.91.12-1.52-.08-1.43v-1.51s.02-2.24.02-2.24c0,0,0-.03,0-.04v-.76s-1.16-.25-1.16-.25c-.21-.04-.35-.24-.33-.45l.09-.92c.02-.21.18-.37.38-.38l1.51-.11,3.12.11,1.5-.03c.1,0,.23.05.31.14.08.09.12.2.11.32l-.08.95c0,.17-.13.31-.29.37l-1.04.34-.57.08-.1,2.87v1.47s.08,4.46.08,4.46l-.04.65s.03.1.03.15v.42l1.05-.02,1.45.13.91-.06.21-.41.82-1.25.59-1.26c.07-.15.21-.24.38-.24h1.06c.11,0,.22.04.3.13.09.08.12.19.12.3"/><path class="cls-1" d="M159.26,46.69h0c.03.13,0,.27-.08.38-.08.1-.19.14-.34.16l-1.62-.03-3.15.05-.31-.02s-.08,0-.11,0l-1.33-.09-1.44.06c-.08,0-.14,0-.2-.04l-1.2.09-1.46-.04c-.12,0-.23-.05-.31-.13-.08-.09-.11-.2-.1-.31l.07-1.04c0-.18.13-.32.31-.38l1.09-.32.09-1.48.02-1.46-.13-2.95.07-1.53-.08-1.45.05-1.42v-.1l-1.19-.25c-.21-.04-.35-.23-.33-.44l.05-1.09c0-.11.06-.22.14-.29.09-.08.2-.11.31-.1l1.43.09h.34c.07-.04.17-.07.24-.06l.84.04,1.33-.09,1.46.03c.08,0,.15.03.21.07l1.85-.1,1.48.07,1.45-.05c.15.02.26.05.34.15s.11.23.09.36l-.02.1.3,1.74-.04,1.98c0,.22-.18.4-.41.41l-1.26.04c-.22,0-.33-.1-.4-.25l-.88-2.07-.75.03-1.43-.1-1.63.03.08,1.21-.11,1.54.02.87h1.18l3.13-.1c.13,0,.23.04.31.13.09.1.13.21.11.33l-.16,1.66c-.03.21-.19.38-.4.38l-1.51.07-1.55-.05h-1.05l.02,1.14-.13,1.53.04.65s.02.07.02.1l.03.52h1.3s2.72-.1,2.72-.1l.08-.14,1.07-2.21c.07-.15.23-.26.4-.24l1.24.05c.24,0,.41.21.4.44l-.06,1.92-.5,2.1Z"/><path class="cls-1" d="M188.33,42.07l-.09,1.62-.17,1.59-.39,1.48c0,.09-.03.17-.08.24-.08.1-.2.17-.33.17l-3.03.04-1.72-.1s-.06,0-.1,0l-1.26-.02h-.18s-1.28.11-1.28.11l-1.46-.08h-1.36c-.11,0-.22-.04-.3-.12-.08-.08-.12-.18-.12-.3v-.98c0-.19.12-.36.3-.41l1.09-.3.1-4.44-.08-1.46v-1.51s.03-1.51.03-1.51l-.04-1.5-1.13-.3c-.2-.05-.33-.24-.31-.44l.08-.92c.02-.2.18-.37.39-.38l1.5-.1,1.59.08,1.52-.02h1.53c.23.02.41.2.41.44v.98c0,.19-.12.37-.31.41l-1.67.38-.02.24.02.36c0,.07-.02.14-.04.19l-.03.59.07,2.94v1.5l-.1,1.52v1.47s0,.51,0,.51c.06.08.1.17.09.27v.46l2.46.05,1-.05.92-1.63.62-1.29c.07-.14.22-.23.38-.23l1.07-.02c.17.03.23.05.31.13.08.09.12.2.11.31"/><path class="cls-1" d="M206.68,42.72l-.13,1.87-.14,1.14-.34,1.18c-.03.11-.1.2-.2.25-.1.06-.23.07-.33.03l-.04-.02-1.38.04h-1.6l-1.6-.08-3.18.07-1.44-.08-1.38.07c-.14.02-.23-.03-.32-.12-.08-.08-.13-.19-.12-.31l.04-1.05c0-.18.13-.34.3-.39l1.08-.3.03-1.46.1-1.5-.1-2.93.09-1.53-.09-2.94-1.18-.26c-.22-.04-.36-.24-.33-.46l.13-1.03c.03-.2.2-.36.41-.37l1.77-.03c.05-.03.11-.04.18-.04h1.47s1.08.08,1.08.08l1.08-.05c.08-.02.16,0,.22.04l1.88-.07,1.47.09,1.39-.03s.08,0,.11.02.07.02.1.04c.11.06.19.17.21.3l.33,1.95-.05,1.94c0,.22-.18.4-.4.41l-1.25.05c-.2.02-.32-.09-.4-.24l-.96-2.12-.72-.04-2.73.08-.26-.02-.06,1.23v1.46s.06.83.06.83l1.17.07,3.09-.09c.13,0,.24.04.32.13.09.1.12.21.11.33l-.17,1.63c-.03.22-.2.38-.42.38l-2.99.08h-1.12s-.05,2.61-.05,2.61l.06,1.23,1.32.08,2.67-.1.1-.16,1.07-2.2c.08-.15.26-.24.41-.24l1.23.08c.1,0,.21.06.29.14.07.09.11.2.11.31"/><path class="cls-1" d="M232.03,45.75l-.05,1.09c-.02.22-.2.4-.43.4l-1.44-.02-1.39.04-2.86-.04c-.11,0-.22-.05-.3-.13-.08-.09-.12-.19-.12-.3l.04-1.05c0-.17.12-.33.3-.38l1.3-.37-.03-.24v-1.52s-.1-1.44-.1-1.44l-.2-1.43.03-1.53-.1-1.18-.3.71-.44,1.31-.57,1.32-.99,2.61-.41,1.32-.51,1.38c-.07.19-.27.3-.47.27l-.13-.03-.76.11-1.17-.04c-.17,0-.31-.11-.38-.27l-.51-1.33-.45-1.35-.53-1.27-.38-1.43-.55-1.22-.74-2.21-.15,1.35-.07,1.45.02,1.46-.18,1.53-.11,1.75,1.37.25c.22.04.36.24.34.46l-.1.99c-.02.21-.19.38-.41.38l-3.23.1-1.69-.03c-.11,0-.22-.05-.3-.13-.08-.09-.12-.2-.11-.31l.05-1.05c0-.18.13-.33.31-.38l1.15-.35.04-.2v-1.35l.17-1.45.09-1.38-.04-1.38.21-1.47.03-1.37.16-1.71-1.33-.28c-.22-.04-.36-.24-.33-.45l.11-1.06c.02-.22.19-.37.41-.38l1.7-.04,1.71.07s.05,0,.08,0h.17l1.33-.04c.12,0,.33.1.4.26l.53,1.32.91,2.71.51,1.3.42,1.39.87,2.48.27-.58.39-1.39.58-1.44.49-1.41.37-1.45.63-1.46.44-1.42c.05-.17.22-.29.4-.29h.61c.06-.02.12-.04.19-.04h1.42s1.39.04,1.39.04l1.38-.03c.09-.03.24.04.33.14.08.1.11.22.1.34l-.14,1.01c-.02.17-.14.3-.3.34l-1.13.34.05.37v1.43s.1,1.35.1,1.35l.19,1.33v1.45s.33,4.49.33,4.49l1.17.24c.2.03.35.22.34.43"/><path class="cls-1" d="M252.47,38.45l-.28-1.37-.57-1.26-1.05-1.48-1.3-1.13s-.08-.06-.12-.08l-1.2-.45-1.27-.32-1.26-.04-1.32.05-1.26.32-1.14.46s-.08.04-.11.07l-1.38,1.19-1.03,1.39s-.05.08-.06.11l-.42,1.26-.37,1.34-.1,1.38.1,1.4.74,2.51c.02.05.04.1.08.14l1.13,1.4,1.37,1.17,1.1.57s.08.03.12.03l1.26.23,1.23.1h.08l1.28-.16,1.27-.31,1.19-.54,1.4-1s.08-.06.11-.1l1.02-1.51.5-1.22s.03-.07.03-.11l.35-2.68-.13-1.34ZM248.38,42.98l-.59,1.1-.85.78-1.15.21-1.5-.37-1.18-1.01-.57-1.3-.34-1.48-.04-1.57.04-1.31.29-1.28.51-1.17.93-.71,1.15-.3,1.48.43,1.12,1.06.58,1.29.39,1.48-.02,1.57.05,1.33-.31,1.25Z"/><path class="cls-1" d="M273.66,32.99l-.07.97c0,.18-.12.32-.29.38l-.98.31-.1,1.54.1,1.46v3.05s-.1,1.53-.1,1.53l.08,1.48-.06,1.55.02,1.48c0,.14-.07.27-.19.36-.03.03-.08.04-.12.05-.04.02-.09.03-.13.03l-1.74.06h-.02c-.13,0-.25-.06-.33-.17l-2.72-3.58-.85-1.3-2.94-3.83.09,1.15v2.82s-.1,1.43-.1,1.43l.07,1.29,1.39.28c.2.04.34.23.33.44l-.05,1.06c0,.24-.18.4-.43.4l-3.39-.11-1.65.04c-.13,0-.23-.04-.31-.13-.08-.09-.12-.2-.11-.32l.06-.97c0-.17.12-.32.3-.37l1.11-.34v-1.46s-.03-1.47-.03-1.47l.09-1.52-.07-4.43.02-1.35-1.27-.45c-.17-.06-.29-.23-.28-.42l.06-1.04c.02-.23.19-.4.45-.39l1.65.09,1.36-.02c.08-.07.18-.11.29-.1.14,0,.26.08.33.19l.85,1.3.94,1.11,1.8,2.46.85,1.28.92,1.13,1.11,1.58-.07-4.06.02-1.45-.07-1.38-1.14-.26c-.2-.04-.33-.22-.33-.42l.04-1.07c0-.1.05-.21.13-.29.09-.08.17-.13.31-.11l3.21.11,1.55-.04c.16.02.23.04.31.13.09.09.13.2.11.32"/></g></svg>