<svg width="152" height="23" viewBox="0 0 152 23" fill="none" xmlns="http://www.w3.org/2000/svg">
<path d="M13.1586 0.720526L15.8655 6.20538C16.0538 6.58686 16.4177 6.85119 16.8387 6.91227L22.8918 7.79186C23.9521 7.94606 24.3752 9.24869 23.6082 9.99612L19.2282 14.2655C18.9239 14.5623 18.7847 14.9904 18.8568 15.4094L19.8906 21.4379C20.0718 22.4937 18.9634 23.2987 18.0152 22.8006L12.6014 19.9546C12.225 19.7568 11.7749 19.7568 11.3984 19.9546L5.98468 22.8006C5.03649 23.2992 3.92811 22.4937 4.10933 21.4379L5.14312 15.4094C5.21521 14.9904 5.07604 14.5623 4.77166 14.2655L0.391685 9.99612C-0.375274 9.24819 0.047755 7.94556 1.10808 7.79186L7.16115 6.91227C7.58217 6.85119 7.94613 6.58686 8.13436 6.20538L10.8412 0.720526C11.3148 -0.240175 12.6846 -0.240175 13.1586 0.720526Z" fill="#EE9972"/>
<path d="M45.1585 0.720526L47.8654 6.20538C48.0536 6.58686 48.4176 6.85119 48.8386 6.91227L54.8917 7.79186C55.952 7.94606 56.375 9.24869 55.6081 9.99612L51.2281 14.2655C50.9237 14.5623 50.7846 14.9904 50.8566 15.4094L51.8904 21.4379C52.0717 22.4937 50.9633 23.2987 50.0151 22.8006L44.6013 19.9546C44.2249 19.7568 43.7748 19.7568 43.3983 19.9546L37.9846 22.8006C37.0364 23.2992 35.928 22.4937 36.1092 21.4379L37.143 15.4094C37.2151 14.9904 37.0759 14.5623 36.7715 14.2655L32.3916 9.99612C31.6246 9.24819 32.0476 7.94556 33.108 7.79186L39.161 6.91227C39.5821 6.85119 39.946 6.58686 40.1342 6.20538L42.8411 0.720526C43.3147 -0.240175 44.6844 -0.240175 45.1585 0.720526Z" fill="#EE9972"/>
<path d="M77.1584 0.720526L79.8653 6.20538C80.0535 6.58686 80.4175 6.85119 80.8385 6.91227L86.8916 7.79186C87.9519 7.94606 88.3749 9.24869 87.608 9.99612L83.228 14.2655C82.9236 14.5623 82.7844 14.9904 82.8565 15.4094L83.8903 21.4379C84.0715 22.4937 82.9632 23.2987 82.015 22.8006L76.6012 19.9546C76.2247 19.7568 75.7747 19.7568 75.3982 19.9546L69.9844 22.8006C69.0362 23.2992 67.9279 22.4937 68.1091 21.4379L69.1429 15.4094C69.215 14.9904 69.0758 14.5623 68.7714 14.2655L64.3914 9.99612C63.6245 9.24819 64.0475 7.94556 65.1078 7.79186L71.1609 6.91227C71.5819 6.85119 71.9459 6.58686 72.1341 6.20538L74.841 0.720526C75.3146 -0.240175 76.6843 -0.240175 77.1584 0.720526Z" fill="#EE9972"/>
<path d="M109.158 0.720526L111.865 6.20538C112.053 6.58686 112.417 6.85119 112.838 6.91227L118.891 7.79186C119.952 7.94606 120.375 9.24869 119.608 9.99612L115.228 14.2655C114.923 14.5623 114.784 14.9904 114.856 15.4094L115.89 21.4379C116.071 22.4937 114.963 23.2987 114.015 22.8006L108.601 19.9546C108.225 19.7568 107.775 19.7568 107.398 19.9546L101.984 22.8006C101.036 23.2992 99.9277 22.4937 100.109 21.4379L101.143 15.4094C101.215 14.9904 101.076 14.5623 100.771 14.2655L96.3913 9.99612C95.6244 9.24819 96.0474 7.94556 97.1077 7.79186L103.161 6.91227C103.582 6.85119 103.946 6.58686 104.134 6.20538L106.841 0.720526C107.314 -0.240175 108.684 -0.240175 109.158 0.720526Z" fill="#EE9972"/>
<path d="M141.158 0.720526L143.865 6.20538C144.053 6.58686 144.417 6.85119 144.838 6.91227L150.891 7.79186C151.952 7.94606 152.375 9.24869 151.608 9.99612L147.228 14.2655C146.923 14.5623 146.784 14.9904 146.856 15.4094L147.89 21.4379C148.071 22.4937 146.963 23.2987 146.015 22.8006L140.601 19.9546C140.224 19.7568 139.774 19.7568 139.398 19.9546L133.984 22.8006C133.036 23.2992 131.928 22.4937 132.109 21.4379L133.143 15.4094C133.215 14.9904 133.076 14.5623 132.771 14.2655L128.391 9.99612C127.624 9.24819 128.047 7.94556 129.108 7.79186L135.161 6.91227C135.582 6.85119 135.946 6.58686 136.134 6.20538L138.841 0.720526C139.314 -0.240175 140.684 -0.240175 141.158 0.720526Z" fill="#EE9972"/>
</svg>
