<?xml version="1.0" encoding="UTF-8"?><svg id="Layer_2" xmlns="http://www.w3.org/2000/svg" viewBox="0 0 196.29 153.17"><defs><style>.cls-1{fill:#231f20;}</style></defs><g id="Layer_1-2"><path class="cls-1" d="M14.59,0L5.22,48.1c-3.96,20.32,8.3,40.11,27.72,45.95l-8.84,45.35-22.58-4.4-1.53,7.85,53,10.33,1.53-7.85-22.58-4.4,8.84-45.35c20.2,1.88,38.99-11.86,42.95-32.18l9.37-48.1L14.59,0ZM83.73,21.62l-7.08,36.32-62.82-12.24,7.08-36.32,62.82,12.24ZM38.36,87.15c-15.99-3.12-26.88-17.7-25.8-33.55l62.31,12.14c-4.95,15.09-20.52,24.53-36.51,21.41Z"/><path class="cls-1" d="M103.18,15.3l9.37,48.1c3.96,20.32,22.75,34.06,42.95,32.18l8.84,45.35-22.58,4.4,1.53,7.85,53-10.33-1.53-7.85-22.58,4.4-8.84-45.35c19.43-5.84,31.68-25.63,27.72-45.95L181.7,0l-78.52,15.3ZM175.38,9.38l7.08,36.32-62.82,12.24-7.08-36.32,62.82-12.24ZM121.42,65.74l62.31-12.14c1.08,15.85-9.81,30.44-25.8,33.55-15.99,3.12-31.56-6.32-36.51-21.41Z"/></g></svg>