<?xml version="1.0" encoding="UTF-8"?><svg id="Layer_2" xmlns="http://www.w3.org/2000/svg" viewBox="0 0 99.26 175"><defs><style>.cls-1{fill:#fff;}.cls-2{fill:#495e57;}.cls-3{fill:#f4ce14;}.cls-4{fill:#333;}</style></defs><g id="Layer_1-2"><path class="cls-1" d="M41.71,59.36l-.44-1.75,1.24,1.42.67,1.37.82,1.23.81,1.28.58,1.42.52.97.19.34.81,1.26.75,1.31.52,1.38v.05s.05.06.05.06l.76,1.19,1.03,1.83-.76-.6c-.1-.07-.19-.15-.3-.23l-.18-.13-.33-.25-.16-.19c-.41-.42-.82-.93-1.23-1.51l-.05-.07-.31-.39-.69-1.17-.03-.04-.76-1.16-.71-1.21-.54-1.3-.61-1.25-.59-1.26-.56-1.27-.5-1.3Z"/><polygon class="cls-1" points="37.74 59.37 38.2 58.11 39.06 56.93 39.55 55.72 40.26 54.71 41.32 54.35 42.16 54.72 42.45 54.86 42.94 55.38 43.48 55.93 44.58 56.93 45.57 58.13 46.96 59.02 47.84 60.11 48.85 61.14 49.85 61.99 50.69 63.05 51.25 64.35 51.88 65.48 51.97 66.89 52.32 68.12 52.44 69.6 52.76 70.88 52.61 72.29 52.84 75.2 53.19 76.32 52.83 76.95 52.15 77.07 51.09 76.67 49.91 75.94 48.52 75.52 47.35 74.68 43.51 73 42.16 72.12 40.81 71.56 39.82 70.69 38.92 69.53 37.48 67.28 37.28 65.96 36.96 64.69 36.87 63.35 37.74 59.37"/><path class="cls-2" d="M64.9,54.47l-.82.79-1.13.82-2.54,1.28-1.37.45-1.32.5-1.38.38-1.39.33-1.38.25-1.48.12-.32-.16-1.07-.31-1.11-.46-1.07-.59-1.1-.22-1.15-.48-.21-.12-.71-.87-1.12-1-1.08-1.14-.22-.11.67-.1h.07c.19-.01.41-.02.65-.04l.41-.02.47-.02h1.5s1.48-.13,1.48-.13l1.5.06,1.49-.06h1.51s1.48-.18,1.48-.18l1.5.11,1.51-.02,1.4-.05v-.13s.01-.08.01-.08l-1.17-.07h-.12s-.17-.04-.17-.04h-.06s-1.15-.22-1.15-.22l-1.19-.02h-.19l-.06-.02h-.02l-1.26-.34h-.02l-1.39.07-1.4-.17h-1.42l-1.26.24h-.02c-.07,0-.14.01-.21.01h-.04l-1.23-.07h-.01s-1.38.28-1.38.28l-1.38.25-.99.54-.53-.25.92-.46,1.04-.92,1.31-.48,1.27-.62,1.19-.69,1.39-.25,1.28-.5,2.73-.06,1.34.1,2.8.59,1.34.62,1.37.51,1.38.28,1.33.42,1.27.56.73.88.29,1.06Z"/><path class="cls-3" d="M71.69,89.86l-.14-1.2.12-1.31-.27-1.18-.45-1.26.18-1.31-.4-1.11-.28-1.28-1.34-3.45-.22-1.28-1.37-2.17-.31-1.16-.77-.9-1.25-2.22-1.06-.83-1.39-2.02-.97-.73-1.85-1.82-1.99-1.46-1.2-.63-.8-.87-1.23-.44-1.03-.74-.93-.81-.64-.31-.31-.16-1.07-.31-1.11-.46-1.07-.59-1.1-.22-1.15-.48-.21-.12-.71-.87-1.12-1.01-1.08-1.14-.22-.11-.1-.04h-.02l-.29-.16-.08-.04-.53-.25-.53-.25-1.82.62-.05.07-.41-.04-.93.52-.87.83-.94.72-.45,1.05-.68,1.02-.1,2.37-.41,2.67-.69,1.01-.29,1.26-.59,1.1-.5,1.13-.33,1.15-.41,1.22-.63,1.27-.86.98-.52,1.04-.27,1.15-.4,1.37-.69.99-.25,1.27-.52,1.04.19,1.25-.46,3.68.33,1.14.24,1.35-.29,1.26.27,1.13.13,1.29v1.21l.47,1.1.27,1.28.22,1.23.45,1.06.3,1.27.25,1.25.31,1.1.68.98.53,1.15.75.9,1.51,2.05.47,1.17,1.34,1.82,1.07.82.62.99.94.86,1.74,2.09.97.81,1.07.73,1.03.96.87,1.01,1.05.69,1.15.58,3.63,1.39,1.22.34,1.44.28,1.09.76,1.38.38,1.29.81.72.93,1.05.51,1.86,1.51.98-.08,1.02-.05.79-.28.28-.86.42-.93-.27-1.03.11-1.2.65-2.25.54-1.21.77-.75.38-1.19.35-1.39.65-1.17.7-1.1.23-1.17.96-2.41.59-2.4.46-1.23.52-1.14.15-1.19.35-1.28.08-1.19.39-2.52.46-1.19-.33-1.28.41-1.3.08-2.47ZM52.83,76.95l-.68.12-1.07-.4-1.17-.73-1.39-.42-1.17-.83-3.84-1.68-1.36-.88-1.34-.56-.99-.87-.9-1.16-1.44-2.25-.21-1.32-.31-1.27-.1-1.33.87-3.98.46-1.26.86-1.19.5-1.21.7-1,1.07-.36.83.38.29.13.5.52.53.56,1.1.99.99,1.2,1.39.9.88,1.09,1.01,1.03,1,.85.83,1.06.56,1.29.63,1.14.1,1.4.35,1.23.12,1.48.31,1.28-.14,1.4.23,2.92.35,1.11-.36.63Z"/><path class="cls-2" d="M52.84,75.2l-.23-2.92.14-1.4-.31-1.28-.12-1.48-.35-1.23-.1-1.4-.63-1.14-.56-1.29-.83-1.07-1-.85-1-1.03-.88-1.09-1.39-.9-.99-1.2-1.1-.99-.53-.56-.5-.52-.29-.13-.83-.38-1.07.36-.7,1-.5,1.21-.86,1.19-.46,1.26-.87,3.98.1,1.33.31,1.27.21,1.32,1.44,2.25.9,1.16.99.87,1.34.56,1.36.88,3.84,1.68,1.17.83,1.39.42,1.17.73,1.07.4.68-.12.36-.63-.35-1.11ZM49.26,72.09c-.1-.07-.19-.14-.3-.23l-.18-.13-.33-.25-.16-.19c-.41-.42-.82-.93-1.24-1.51l-.05-.07-.31-.39-.69-1.17-.03-.04-.76-1.16-.71-1.21-.54-1.29-.61-1.25-.59-1.26-.56-1.27-.5-1.29-.44-1.75,1.24,1.42.67,1.37.82,1.23.81,1.28.58,1.42.52.97.19.34.81,1.26.75,1.31.52,1.38v.05s.05.06.05.06l.76,1.19,1.03,1.83-.76-.61Z"/><path class="cls-3" d="M50.02,72.7l-.76-.6c-.1-.07-.19-.15-.3-.23l-.18-.13-.33-.25-.16-.19c-.41-.42-.82-.93-1.23-1.51l-.05-.07-.31-.39-.69-1.17-.02-.04-.76-1.16-.71-1.21-.54-1.29-.61-1.25-.59-1.26-.56-1.27-.5-1.29-.43-1.75,1.23,1.42.67,1.37.82,1.23.81,1.28.58,1.42.52.97.19.34.81,1.26.75,1.31.52,1.38v.05s.05.06.05.06l.76,1.19,1.03,1.83Z"/><path class="cls-3" d="M54.7,52.89h-.15l-.06-.02c.07.01.13.01.21.02"/><path class="cls-3" d="M58.68,53.32h-.07.07"/><path class="cls-3" d="M58.6,53.24v.22s-1.42.05-1.42.05l-1.51.02-1.5-.11-1.48.17h-1.51s-1.49.07-1.49.07l-1.5-.06-1.48.15h-1.5s-.47.01-.47.01l-.41.02c-.24.01-.46.02-.65.04h-.07l-.67.1-.1-.04h-.02l-.29-.16-.08-.04.99-.55,1.38-.25,1.38-.29h.01s1.24.08,1.24.08h.04c.06,0,.13-.01.21-.01h.02l1.26-.24h1.42l1.4.17,1.39-.07h.02l1.26.34h.02l.06.02h.19l1.19.02,1.15.21h.06s.17.04.17.04h.12s1.17.08,1.17.08Z"/><path class="cls-2" d="M97.48,128.05c-.78,0-1.43-.62-1.47-1.4l-.07-1.45c0-.06,0-.11,0-.17l.1-1.45-.1-2.73c0-.06,0-.13,0-.19l.13-1.34-.04-1.34.16-2.89-.17-1.28c0-.08-.01-.16-.01-.23l.03-1.34-.14-1.34c0-.08,0-.17,0-.25l.09-1.43v-1.34l.27-2.9-.05-1.34-.16-1.32c-.02-.15-.01-.29.01-.44l.22-1.19-.35-2.69c-.01-.13,0-.26.01-.39l.2-1.24-.13-1.24-.07-1.53.18-3.06.16-1.34-.09-1.29c0-.06,0-.12,0-.18l.11-2.58-.38-1.2c-.05-.17-.07-.34-.07-.51l.06-1.43-.06-1.3c0-.14,0-.28.04-.42l.31-1.24-.02-1.23-.13-1.31c0-.07,0-.14,0-.22l.2-2.82-.03-1.2-.29-1.29c-.05-.23-.05-.47.01-.7l.34-1.26.02-1.02-.37-1.2c-.05-.17-.07-.35-.06-.53l.28-5.49-.23-1.26c-.04-.22-.03-.45.03-.67l.32-1.13-.15-1.12c0-.06-.01-.12-.01-.17v-1.42s-.13-1.31-.13-1.31c0-.07,0-.15,0-.22l.08-1.33-.08-1.33.05-1.45-.17-1.31c-.01-.08-.01-.16-.01-.24l.05-1.43c0-.1.02-.2.04-.3l.3-1.22-.08-2.54-.28-1.29c-.05-.23-.04-.48.02-.71l.34-1.23v-1.22s-.13-1.31-.13-1.31l-.25-1.29c-.03-.18-.03-.37,0-.55l.26-1.33.08-1.21-.08-.12-1.26.2c-.18.03-.36.02-.53-.01l-1.29-.27h-1.14s-1.3.27-1.3.27c-.19.04-.38.04-.57,0l-1.08-.21-1.09.33c-.23.07-.46.08-.69.04l-1.19-.22-1.19.18c-.18.03-.36.02-.53-.02l-1.23-.27-1.23.09c-.1,0-.21,0-.31,0l-1.25-.17-1.25.13c-.1.01-.21.01-.32,0l-1.27-.14-1.28.14-1.58.02-1.38-.1-1.26.21c-.12.02-.24.02-.36.01l-2.64-.26-1.14.32c-.13.04-.3.06-.4.06h-1.43c-.07,0-.14,0-.21-.02l-1.24-.18-1.24.15c-.11.01-.22.02-.33,0l-1.27-.13-1.27.14c-.18.02-.36,0-.53-.04l-1.07-.28-1.08.25c-.17.04-.34.05-.51.03l-2.67-.31-1.23.2-1.54.14c-.1.01-.21,0-.32,0l-1.43-.18-1.15-.04-1.29.2c-.06,0-.11.01-.17.01l-1.43.05c-.08,0-.16,0-.23-.01l-1.34-.17h-1.34s-1.31-.12-1.31-.12l-1.21.28c-.23.05-.47.05-.7-.01l-1.23-.32-2.62.1-1.41-.06-1.28.2c-.16.02-.33.02-.49,0l-1.12-.2-1.12.26c-.18.04-.38.05-.56.02l-1.17-.18-1.17.23c-.16.03-.33.04-.49.01l-1.22-.17-1.22.17c-.12.02-.24.02-.36,0l-2.66-.24-1.32.12c-.08,0-.17,0-.25,0l-1.3-.11-1.31.11-2.92.08-2.97-.07-1.34-.11-1.28.16c-.17.02-.34.01-.51-.02l-1.12-.25-1.12.23c-.2.04-.4.04-.6,0l-1.2-.25-1.2.12c-.09.01-.19.01-.28,0l-1.43-.13c-.81-.07-1.4-.79-1.33-1.6.07-.81.81-1.41,1.6-1.33l1.29.12,1.29-.13c.15-.02.31,0,.45.02l1.13.24,1.13-.23c.2-.04.41-.04.62,0l1.18.26,1.17-.15c.1-.01.2-.02.31,0l2.79.16,1.4.02,4.15-.19c.08,0,.16,0,.24,0l1.3.11,1.3-.12c.07,0,.15,0,.22,0l2.74.23,1.24-.17c.13-.02.27-.02.4,0l1.18.16,1.18-.23c.17-.03.34-.04.51-.01l1.14.18,1.14-.27c.2-.05.4-.05.6-.01l1.18.21,1.18-.18c.1-.02.19-.02.29-.02l1.43.07,2.75-.11c.14,0,.28.01.42.05l1.08.28,1.08-.25c.15-.03.3-.05.45-.03l1.43.12h1.31c.06,0,.12,0,.18.02l1.31.17,1.22-.04,1.34-.2c.09-.01.19-.02.27-.02l1.43.05,1.4.18,1.27-.11,1.33-.22c.14-.02.27-.02.41,0l2.61.3,1.18-.28c.24-.05.48-.05.71,0l1.17.31,1.16-.13c.11-.01.21-.01.32,0l1.27.14,1.27-.15c.13-.01.25-.01.38,0l1.33.19h1.12s1.23-.35,1.23-.35c.19-.05.39-.07.58-.04l2.62.27,1.26-.21c.12-.02.23-.02.35-.02l1.43.1,1.31-.02,1.29-.15c.11-.01.21-.01.32,0l1.27.14,1.27-.14c.11-.02.24-.01.36,0l1.28.18,1.28-.09c.14-.01.28,0,.42.03l1.17.25,1.17-.18c.16-.03.33-.02.5,0l1.09.2,1.09-.33c.23-.07.47-.08.7-.03l1.15.22,1.15-.23c.09-.02.18-.03.28-.03h1.44c.1,0,.21,0,.31.02l1.18.25,1.18-.19c.12-.02.25-.02.37-.01l1.45.14c.7.07,1.25.61,1.32,1.31l.15,1.43c0,.08,0,.16,0,.24l-.09,1.43c0,.07-.01.13-.02.2l-.23,1.15.21,1.15.14,1.57v1.54c.02.13,0,.27-.04.4l-.3,1.08.23,1.07c.02.09.03.19.03.29l.09,2.82c0,.14,0,.28-.04.42l-.32,1.28-.04,1.15.17,1.31c.01.08.01.17.01.25l-.06,1.43.09,1.27c0,.06,0,.12,0,.18l-.08,1.31.12,1.31.02,1.45.17,1.34c.02.2,0,.4-.04.59l-.31,1.09.2,1.09c.02.11.03.21.02.32l-.27,5.48.36,1.17c.05.15.07.31.06.46l-.03,1.43c0,.12-.02.24-.05.35l-.29,1.08.24,1.08c.02.09.03.19.04.28l.04,1.43c0,.06,0,.11,0,.17l-.19,2.69.12,1.32.03,1.54c0,.13-.01.26-.04.38l-.31,1.22.05,1.22-.05,1.3.38,1.19c.05.16.07.32.07.49l-.11,2.81.1,1.34c0,.09,0,.19,0,.28l-.29,2.81-.06,1.37.21,2.65c.01.13,0,.26,0,.39l-.2,1.24.34,2.61c.02.16.02.33,0,.49l-.22,1.22.14,1.21.06,1.55c0,.06,0,.12,0,.18l-.28,2.89v1.28s-.08,1.4-.08,1.4l.14,1.32c0,.06,0,.13,0,.19l-.03,1.32.18,1.32c.01.11.02.21,0,.32l-.16,2.8.05,1.34c0,.06,0,.13,0,.19l-.13,1.34.09,2.8-.1,1.51.06,1.37c.04.81-.59,1.5-1.4,1.54-.02,0-.05,0-.07,0"/><path class="cls-2" d="M36.17,145.08s-.05,0-.08,0l-1.43-.07c-.1,0-.19-.02-.29-.04l-1.19-.3-2.69.17c-.07,0-.13,0-.2,0l-1.28-.12-1.28.15c-.08.01-.16.01-.23,0l-1.34-.06-1.34.12h-1.57l-1.37.06-1.53-.04c-.06,0-.13,0-.19-.02l-1.19-.19-1.19.2c-.13.02-.26.03-.38.02l-4.04-.3-1.27.26c-.16.03-.33.04-.49.02l-1.19-.16-1.19.24c-.18.04-.37.04-.55,0l-1.2-.22-1.21.17c-.11.02-.22.02-.33.01l-1.44-.12H1.71s0,0,0,0c-.76,0-1.4-.59-1.47-1.35l-.17-2.93-.02-1.46c0-.06,0-.13.01-.19l.26-2.65-.16-1.28c0-.06-.01-.13-.01-.19v-1.43s-.09-1.3-.09-1.3l-.03-1.52.09-1.54.2-1.45v-1.32s-.05-1.37-.05-1.37l-.2-1.26c-.03-.18-.02-.36.02-.53l.27-1.23-.06-1.23v-1.36s-.24-1.28-.24-1.28c-.03-.16-.03-.33-.01-.49l.18-1.23-.14-1.23c-.02-.19,0-.39.05-.58l.31-1.07-.22-1.07c-.04-.18-.04-.36-.01-.54l.18-1.12-.29-1.13c-.06-.23-.06-.47,0-.7l.28-1.2-.1-1.2-.24-1.3c-.02-.1-.03-.21-.02-.32l.06-1.43-.04-1.33c0-.13,0-.25.04-.38l.29-1.22-.06-1.22c0-.09,0-.19.01-.28l.15-1.12-.33-1.13c-.05-.17-.07-.35-.05-.53l.12-1.43.2-1.23-.31-1.11c-.06-.21-.07-.44-.03-.66l.22-1.2-.18-1.2c-.02-.13-.02-.26,0-.39l.16-1.3-.08-1.29c0-.11,0-.22.01-.33l.2-1.22-.16-1.22-.03-1.6.07-1.36-.23-1.27c-.03-.14-.03-.28-.01-.42l.31-2.73-.26-2.66c-.01-.1-.01-.2,0-.29l.35-4.22-.06-2.72-.2-1.32c-.01-.08-.02-.17-.02-.25l.03-1.43c0-.1.01-.2.04-.3l.27-1.2-.28-2.63c0-.1-.01-.2,0-.29l.14-1.44-.02-1.29v-1.46s.17-1.42.17-1.42l-.24-2.79-.07-1.47c0-.06,0-.12,0-.18l.11-1.45c.06-.81.79-1.41,1.58-1.36.81.06,1.42.77,1.36,1.58l-.1,1.36.15,2.78.16,1.37c.01.11.01.22,0,.34l-.17,1.43v1.28s0,1.41,0,1.41l-.13,1.44.29,2.72c.02.16,0,.33-.03.49l-.29,1.29-.02,1.15.2,1.3c.01.07.02.15.02.22l.06,2.8c0,.07,0,.14,0,.21l-.34,4.13.27,2.8c0,.09,0,.19,0,.28l-.3,2.65.22,1.23c.02.11.03.22.02.33l-.07,1.43.02,1.34.17,1.26c.02.14.01.28,0,.42l-.2,1.27.08,1.26c0,.09,0,.18,0,.27l-.15,1.24.18,1.24c.02.16.02.32,0,.47l-.2,1.1.31,1.1c.06.21.07.43.03.65l-.24,1.43-.08,1.03.34,1.17c.06.2.07.41.05.61l-.18,1.29.07,1.29c0,.14,0,.28-.04.41l-.29,1.24.03,1.24-.05,1.37.23,1.27.14,1.56c.01.15,0,.31-.03.46l-.25,1.08.28,1.08c.05.2.06.4.03.6l-.19,1.15.24,1.15c.05.23.04.48-.03.71l-.33,1.14.13,1.13c.01.13.01.26,0,.39l-.17,1.17.23,1.18c.02.1.03.2.03.29v1.42s.05,1.34.05,1.34c0,.13,0,.26-.03.38l-.25,1.16.17,1.16.07,1.59v1.49c0,.07,0,.14-.02.21l-.21,1.43-.07,1.3.13,2.66v1.46s.15,1.33.15,1.33c.01.1.01.19,0,.29l-.27,2.81.07,2.74h1.54l1.39.11,1.28-.18c.16-.02.31-.02.47,0l1.16.21,1.16-.23c.16-.03.32-.04.49-.01l1.19.16,1.19-.24c.11-.02.23-.04.34-.03l1.44.05,2.77.25,1.24-.21c.16-.03.33-.03.49,0l1.33.22,1.33.04,1.33-.06h1.5s1.29-.12,1.29-.12c.07,0,.14,0,.19,0l1.32.06,1.32-.15c.1-.01.2-.01.3,0l1.33.12,2.69-.18c.16-.02.33,0,.5.04l1.29.33,1.18.06,1.32-.13c.08,0,.17-.01.25,0l1.25.09,1.25-.23c.14-.02.28-.03.42-.01l1.23.14,1.23-.21c.15-.02.29-.02.44,0l2.54.26,1.21-.29c.19-.04.39-.05.58-.02l1.23.2,1.23-.13c.15-.02.31-.01.46.02l1.27.26,1.27-.02,2.92.08,2.64-.07,1.29-.28c.11-.02.24-.01.32-.03l2.88.04,1.31-.08c.11,0,.21,0,.31.01l1.21.19,1.21-.17c.19-.03.39-.02.57.03l1.06.28,1.06-.26c.24-.06.49-.06.72,0l1.05.28,1.05-.27c.19-.05.38-.06.57-.03l1.25.18,1.25-.12c.14-.01.29,0,.43.02l1.29.25h1.15s1.29-.23,1.29-.23c.14-.03.28-.03.43-.01l1.25.14,1.26-.16c.16-.02.32-.01.48.02l1.09.22,1.1-.3c.12-.03.24-.05.36-.05l1.43-.03c.1,0,.22,0,.33.03l1.24.26,1.24-.07,1.41.06,1.27-.22c.18-.03.36-.03.54,0l1.25.25,1.25-.06c.08,0,.17,0,.25,0l1.43.18c.81.1,1.38.84,1.28,1.64-.1.81-.85,1.38-1.64,1.28l-1.3-.16-1.3.06c-.12,0-.24,0-.36-.03l-1.16-.23-1.16.2c-.11.02-.21.03-.32.02l-1.43-.06-1.28.08c-.13,0-.26,0-.38-.03l-1.26-.26-1.08.02-1.25.34c-.22.06-.45.07-.68.02l-1.19-.24-1.19.15c-.12.02-.24.01-.35,0l-1.21-.14-1.21.22c-.09.02-.17.02-.27.02h-1.42c-.09-.01-.18-.02-.28-.04l-1.21-.24-1.21.12c-.12,0-.23,0-.35,0l-1.13-.16-1.14.29c-.24.06-.5.06-.74,0l-1.06-.28-1.06.26c-.24.06-.49.05-.72,0l-1.14-.3-1.14.16c-.14.02-.29.02-.43,0l-1.27-.2-1.27.08-2.79-.03-1.27.28c-.09.02-.18.03-.27.03l-2.87.07-2.92-.08-1.38.02c-.09,0-.21,0-.31-.03l-1.2-.25-1.2.13c-.13.01-.27,0-.4-.01l-1.14-.19-1.14.28c-.14.03-.29.05-.44.04l-1.43-.09-1.32-.18-1.21.2c-.14.02-.27.02-.4.01l-1.22-.13-1.22.22c-.12.02-.24.03-.36.02l-1.31-.09-1.31.13s-.1,0-.15,0"/><path class="cls-2" d="M12.93,9.41l-.14,1.55-.08,1.52s-.02.07-.03.1l-.43,1.35c0,.08-.03.15-.07.21-.08.1-.19.17-.32.18l-1.43.1-5.96-.11-1.33.03-1.35-.04c-.11,0-.22-.05-.3-.14-.08-.08-.11-.19-.11-.3l.04-.93c0-.18.12-.32.29-.38l1.06-.36-.02-.61c0-.05,0-.1.03-.14v-2.06s-.06-4.31-.06-4.31l.09-1.49-.11-1.39v-.03l-1.08-.24c-.21-.04-.35-.24-.33-.44l.09-1.01c.02-.22.22-.4.43-.38l1.49.03,1.48-.03,2.97.05c.11,0,.23.05.31.13.07.09.11.2.11.31l-.04.92c0,.18-.14.34-.32.38l-1.57.37v.6c0,.07,0,.12-.03.18v.54s-.02,1.45-.02,1.45l.04,2.87.1,1.43-.16,1.52.02.48c.04.07.07.16.06.24l-.02.45h1.01s2.36-.03,2.36-.03l1.48-2.82c.07-.14.21-.23.37-.23h1.07c.12,0,.23.05.31.14.08.09.11.2.11.32"/><path class="cls-2" d="M25.27,12.95l-.15,1c-.03.21-.2.36-.4.37l-1.33.03-2.75-.05-1.34.08h-.02c-.11,0-.23-.04-.3-.12-.08-.09-.13-.21-.11-.33l.07-1c0-.17.12-.31.29-.37l1.04-.33v-.66c0-.06,0-.11.03-.17v-.56s-.05-1.42-.05-1.42v-1.46s.1-1.46.1-1.46l-.14-2.85.08-.96-.03-.51-1.12-.2c-.23-.04-.38-.25-.35-.48l.15-1c.03-.21.2-.36.41-.37l1.33-.03,2.74.05,1.34-.08c.11-.02.24.03.32.12.09.09.13.2.12.32l-.07,1c-.02.17-.13.32-.3.37l-1.04.34v.65c0,.1-.04.19-.1.26v.45s.04,2.87.04,2.87v1.46l.07,1.42v1.47l-.06.64s.02.07.02.1l.03.7,1.15.21c.22.04.38.25.34.48"/><path class="cls-2" d="M43.58,1.8l-.22-1.26c0-.09-.02-.17-.07-.25-.07-.11-.19-.18-.32-.19l-1.46-.1-2.78.12-1.43-.04-1.38.03-1.46-.05-1.34.12-1.26-.07-.04-.02c-.12-.05-.27-.03-.38.03-.11.07-.19.19-.2.33l-.09,1.39-.15,1.42.02,1.44c0,.11.04.22.13.3.08.08.16.12.31.12l1.1-.04c.17,0,.31-.11.37-.26l.65-1.62.36-.73,1.03.02h.57s.1,2.57.1,2.57l-.04,1.47.02,1.41-.05,1.5.13,1.39-.04.55c-.04.07-.06.15-.06.23v.64s-1.25.33-1.25.33c-.17.04-.31.19-.32.37l-.1,1.01c0,.12.03.24.11.33.08.08.19.13.31.13h0l1.49-.03,1.51.03,1.42-.08,1.5.06c.12,0,.23-.03.31-.11.09-.09.13-.19.13-.31v-.97c0-.2-.13-.37-.32-.41l-1.31-.3-.02-.73c0-.09-.04-.18-.1-.25l-.02-.46.11-1.48.04-2.9-.04-1.42.04-1.48-.07-1.14.43-.03,1.26.06.96,2.39c.07.16.21.24.41.26l1.12-.04c.23,0,.41-.19.41-.42l-.03-2.85ZM42.94.53v-.02h0v.02Z"/><path class="cls-2" d="M61.66,3.23v1.42c0,.11-.05.23-.14.31-.08.08-.22.12-.3.11l-1.05-.05c-.17,0-.31-.11-.38-.26l-.64-1.64-.39-.72-1.25-.02h-.46s.02,1.2.02,1.2l-.04,1.46.11,2.86-.16,2.93.05.54c.04.07.05.14.05.21l.02.72,1.31.29c.2.04.34.23.33.43l-.04.92c-.02.23-.2.4-.43.4l-1.46-.02-1.46.03-1.49-.04h-1.43c-.13,0-.24-.04-.32-.14-.09-.1-.11-.22-.1-.34l.16-.88c.03-.13.11-.25.24-.3l.79-.36.45-.09v-.58c0-.06,0-.11.03-.17l-.06-.56-.03-1.47.1-1.48-.04-1.4v-1.47s-.03-1.43-.03-1.43v-1.21l-1.66.05-1,2.34c-.07.17-.24.3-.41.26l-1.04-.05c-.23,0-.4-.2-.4-.43l.04-1.36-.07-1.34.23-1.48c.02-.14.1-.25.22-.31.11-.06.26-.06.38,0l.12.06,1.06-.08,1.43-.03,1.43.1,1.36-.04h1.42s1.39-.03,1.39-.03l2.82.03c.14,0,.26.07.34.18.05.08.08.17.07.26l.21,1.26.07,1.42Z"/><path class="cls-2" d="M79.01,10.93l-.19,1.58-.38,1.59c-.03.11-.1.22-.21.27-.06.03-.13.05-.2.05-.04,0-.1,0-.15-.03h-.03s-1.31.02-1.31.02l-1.49-.03h-1.45s-1.54-.03-1.54-.03l-1.45.04c-.07,0-.16-.02-.22-.05l-1.16-.1-1.33.16c-.11.02-.25-.03-.34-.12-.09-.09-.13-.21-.12-.34l.1-1.03c.02-.18.14-.32.31-.37l1.04-.33-.06-.64c0-.12.03-.24.11-.33h0l.08-1.87-.21-1.37.15-2.96-.1-1.4-.02-1.46-1.12-.24c-.21-.04-.35-.24-.33-.45l.1-1.03c.02-.21.2-.37.42-.37h1.49s1.53.1,1.53.1l1.45-.04,1.52-.11c.1-.02.24.03.33.12.09.09.13.21.12.33l-.1,1.03c-.02.19-.16.34-.33.37l-1.58.33-.03.65c0,.06-.03.12-.05.17l-.04.58.04,1.4.1,1.42-.11,1.5.07,1.39.06,2.76.99.04,1.28-.21,1.16.08.19-.31.44-1.25.8-1.26c.08-.12.22-.2.37-.19l.95.02c.23,0,.41.18.41.41l.04,1.52Z"/><path class="cls-2" d="M96.86,10.02l-.32,2.89-.26.98c0,.1-.02.21-.09.29-.08.1-.2.16-.33.16h-1.52l-1.56-.09-3.03.15h-.23l-1.39-.07h-1.34s-1.34,0-1.34,0c-.11,0-.23-.05-.31-.13-.08-.09-.12-.19-.11-.3l.03-.96c0-.18.12-.34.3-.38l1.05-.31.03-1.41-.03-1.43.1-4.35-.07-1.41v-1.5l-1.12-.3c-.18-.05-.31-.23-.31-.42l.02-.91c0-.22.18-.39.4-.41l1.35-.05,2,.04,1.37-.03,4.18.11,1.36-.08s.1,0,.14.02c.05,0,.1.03.14.06.11.06.18.18.2.3l.2,1.89v1.82c0,.23-.18.41-.41.42l-1.15.04c-.19-.02-.32-.09-.39-.24l-.97-2.06-2,.11-1.6-.08v.46c0,.05,0,.1-.03.15v2.04s.04.79.04.79l1.09-.02,3,.04c.12,0,.23.05.31.14.08.09.12.2.1.32l-.14,1.5c-.02.21-.19.37-.4.38l-1.41.05h-1.49l-1.08-.07-.03,1.2.14,1.39-.05,1.25,1.21-.02,2.52.04,1.27-2.31c.08-.14.24-.23.38-.22l1.18.04c.11,0,.23.05.3.14.08.09.11.21.1.32"/><path class="cls-4" d="M12.65,171.23l-.19,1.57-.34,1.56c-.03.11-.1.21-.2.27-.08.04-.18.06-.26.05h-1.46l-1.48.09-1.57-.1h-.21s-.03,0-.05,0l-4.17.1-1.42-.08c-.23-.02-.4-.2-.39-.43v-1c.02-.18.14-.35.31-.4l1.09-.3.07-1.47-.08-1.45.06-1.52-.06-2.95.11-1.53v-.78s0,0,0,0v-.66s-1.24-.32-1.24-.32c-.19-.05-.32-.24-.31-.44l.07-.98c0-.21.18-.38.4-.39l3.07-.08,1.59.13,1.48-.05c.1,0,.23.04.31.12.08.08.12.19.12.3l-.02,1c0,.19-.14.36-.32.4l-1.66.36.03,1.39-.13,1.52.09,1.43v1.51l-.04,3.51c.05.08.08.17.07.26l-.02.46,1.02-.05,1.45.05h.95l.18-.38.75-1.27.68-1.26c.07-.13.2-.22.35-.23l1.07-.03c.15,0,.24.04.32.12.09.09.12.21.11.33l-.13,1.63Z"/><path class="cls-4" d="M31.03,172.11l-.48,2.13c.02.12,0,.24-.09.33-.05.07-.11.11-.19.14-.05.03-.11.03-.17.03-.04,0-.08,0-.12-.02l-1.46-.05-3.13.07h-3.22c-.1,0-.18-.04-.25-.1h-1.17s-1.39.09-1.39.09c-.12.02-.24-.03-.32-.12-.09-.08-.13-.2-.12-.32l.06-1.05c0-.18.13-.32.31-.38l1.08-.31.02-.7s0-.08,0-.11l.03-.65-.04-2.96.11-1.52v-1.46l-.1-1.46.06-1.42v-.13l-1.21-.26c-.2-.04-.34-.23-.33-.43l.04-1.04c0-.23.19-.4.42-.4h1.42s.43.03.43.03c.05-.03.11-.03.16-.03l1.46.03,2.84-.04,1.46.11h1.4l1.28-.08c.12-.05.26-.04.38.03.02,0,.03.02.04.03.04.02.06.04.09.07.08.1.11.23.09.37v.02l.18,1.84.04,1.86c.01.23-.17.41-.39.43l-1.24.1c-.17,0-.34-.09-.41-.25l-.93-2.11-.71.04h-1.4l-1.6-.1v.54c0,.1-.04.2-.1.28v.47l.09,2.31,2.68-.03,1.53.1c.11,0,.22.05.29.14.08.09.11.19.11.3l-.11,1.53c0,.21-.18.38-.39.38l-1.46.09-1.57-.08h-1.08s.06,1.18.06,1.18l-.05,1.52v1.25l2.81-.04,1.06.08.71-1.33.68-1.04c.07-.11.21-.19.35-.19h1.16c.11,0,.22.06.3.14.08.08.12.19.12.3l-.07,1.86Z"/><path class="cls-4" d="M56.34,174.29c-.03.2-.19.35-.39.37l-1.37.1h-1.43s-2.8-.1-2.8-.1c-.23,0-.41-.2-.4-.43v-.96c0-.19.14-.35.32-.4l1.27-.34v-.32l-.39-7.02-.28.7-.62,1.29-.82,2.62-.62,1.33-.85,2.29v.23c-.02.23-.2.4-.43.4l-2.06.02c-.17,0-.31-.11-.38-.25l-.56-1.28-.44-1.39-.49-1.29-.58-1.25-.41-1.42-.81-2.16v1.34l-.09,1.49-.19,1.5-.1,3.23,1.31.18c.23.03.38.24.37.46l-.1,1.11c-.02.22-.2.38-.42.38h0l-3.29-.08h-1.59c-.11,0-.23-.04-.31-.12-.08-.08-.12-.19-.12-.3l.04-.96c0-.18.12-.34.29-.39l1.02-.31v-.19l.2-1.46.44-7.02.05-1.69-1.29-.24c-.22-.04-.37-.24-.35-.45l.11-1.13c.03-.22.21-.38.42-.38h.04l1.72.12.42-.02s.1-.03.15-.03l2.71-.08h.02c.17,0,.34.11.39.28l1.45,4.04.37,1.4,1.07,2.56.3,1.11.12-.45.62-1.45,2.48-7.12c.06-.17.21-.27.38-.27l.59-.02c.06-.04.12-.05.19-.05l1.4-.06,1.41.04,1.35.1c.23.02.4.22.38.44l-.05.93c0,.17-.13.32-.3.38l-1.18.36.29,3.12-.02,1.41.28,2.7v1.44s.14,1.68.14,1.68l1.2.29c.21.05.34.24.31.45l-.11.99Z"/><path class="cls-4" d="M76.9,165.96l-.3-1.29-.4-1.25s-.04-.09-.07-.13l-1.14-1.42-1.4-1.11-1.09-.56s-.08-.03-.12-.04l-2.43-.42s-.08,0-.11,0l-1.27.14-1.31.27-1.13.52s-.07.04-.1.07l-1.36,1.22-1.01,1.49-.5,1.25-.38,1.35-.06,1.36.08,1.4.75,2.49c.02.05.03.1.07.13l1.01,1.39s.05.06.08.08l1.33,1.09s.07.04.11.06l1.19.48,1.23.28,1.22.17s.04,0,.06,0,.04,0,.05,0l1.28-.16,1.26-.3,1.16-.45s.08-.04.11-.07l1.32-1.11s.05-.04.08-.07l1.06-1.49.52-1.31.22-1.35.04-1.34-.05-1.39ZM73.07,169.21l-.26,1.27-.51,1.18-.91.74-1.18.17-1.53-.27-1.1-1.12-.65-1.29-.18-1.5-.13-1.52.1-1.34.24-1.28.48-1.19.91-.76,1.17-.23,1.49.44,1.14,1.05.58,1.3.4,1.48-.04,2.86Z"/><path class="cls-4" d="M98.05,161.48c0,.17-.13.32-.3.38l-1,.32-.11,1.53.11,1.45-.02,1.55.02,1.5-.1,1.54v1.5l.02,2.11.09.91c0,.11-.04.23-.1.32-.09.09-.19.13-.31.14l-1.83.03h0c-.12,0-.24-.05-.32-.16l-.93-1.17-.88-1.25-.9-1.19-.87-1.24-.92-1.18-.89-1.23-1.14-1.46.1,1.15-.02,1.43.02,1.39-.1,1.85c.03.06.04.12.04.19v.67s1.4.32,1.4.32c.2.05.34.23.32.44l-.08.96c-.02.21-.19.38-.41.38l-1.65.05-3.36-.05c-.11,0-.22-.04-.3-.13-.08-.08-.12-.19-.11-.3l.03-.98c0-.18.13-.34.31-.39l1.11-.33.04-1.46-.02-1.47.04-1.5-.04-1.46.03-1.51-.08-1.47.08-1.32-1.29-.49c-.17-.07-.29-.24-.27-.43l.07-.99c.02-.23.17-.39.43-.39l1.64.04,1.43-.03c.07-.04.15-.06.24-.05.13,0,.24.08.31.19l.84,1.29.95,1.1,1.81,2.45.84,1.29,2.02,2.69-.04-1.19.02-1.44-.07-1.4.08-1.96c-.02-.05-.04-.1-.04-.17v-.68s-1.2-.31-1.2-.31c-.19-.05-.33-.24-.31-.44l.07-.96c0-.22.18-.38.4-.39l1.57-.05,3.19.05c.11,0,.22.05.3.13.08.09.12.19.11.3l-.04.98Z"/><path class="cls-2" d="M76.9,165.96l-.3-1.29-.4-1.25s-.04-.09-.07-.13l-1.14-1.42-1.4-1.11-1.09-.56s-.08-.03-.12-.04l-2.43-.42s-.08,0-.11,0l-1.27.14-1.31.27-1.13.52s-.07.04-.1.07l-1.36,1.22-1.01,1.49-.5,1.25-.38,1.35-.06,1.36.08,1.4.75,2.49c.02.05.03.1.07.13l1.01,1.39s.05.06.08.08l1.33,1.09s.07.04.11.06l1.19.48,1.23.28,1.22.17s.04,0,.06,0,.04,0,.05,0l1.28-.16,1.26-.3,1.16-.45s.08-.04.11-.07l1.32-1.11s.05-.04.08-.07l1.06-1.49.52-1.31.22-1.35.04-1.34-.05-1.39ZM73.07,169.21l-.26,1.27-.51,1.18-.91.74-1.18.17-1.53-.27-1.1-1.12-.65-1.29-.18-1.5-.13-1.52.1-1.34.24-1.28.48-1.19.91-.76,1.17-.23,1.49.44,1.14,1.05.58,1.3.4,1.48-.04,2.86Z"/><path class="cls-2" d="M12.78,169.6l-.13,1.63-.19,1.57-.34,1.56c-.03.11-.1.21-.2.27-.08.04-.18.06-.26.05h-1.46l-1.48.09-1.57-.1h-.21s-.03,0-.05,0l-4.17.1-1.42-.08c-.23-.02-.4-.2-.39-.43v-1c.02-.18.14-.35.31-.4l1.09-.3.07-1.47-.08-1.45.06-1.53-.06-2.95.11-1.53v-.78s0,0,0,0v-.66s-1.24-.32-1.24-.32c-.19-.05-.32-.24-.31-.44l.07-.98c0-.21.18-.38.4-.39l3.07-.08,1.59.13,1.48-.05c.1,0,.23.04.31.12.08.08.12.19.12.3l-.02,1c0,.19-.14.36-.32.4l-1.65.36.03,1.39-.13,1.53.09,1.43v1.51l-.04,3.51c.05.08.08.17.07.26l-.02.46,1.02-.05,1.45.05h.95l.18-.38.75-1.27.68-1.26c.07-.13.2-.22.35-.23l1.07-.03c.15,0,.24.04.32.12.09.09.12.21.11.33"/><path class="cls-2" d="M31.1,170.25l-.07,1.86-.48,2.13c.02.12,0,.24-.09.33-.05.07-.11.11-.19.14-.05.03-.11.03-.17.03-.04,0-.08,0-.12-.02l-1.46-.05-3.13.07h-3.22c-.1,0-.18-.04-.25-.1h-1.17s-1.39.09-1.39.09c-.12.02-.24-.03-.32-.12-.09-.08-.13-.2-.12-.32l.06-1.05c0-.17.13-.32.31-.38l1.08-.31.02-.7s0-.08,0-.11l.03-.65-.04-2.96.11-1.52v-1.46l-.1-1.45.06-1.42v-.13l-1.21-.26c-.2-.04-.34-.23-.33-.43l.04-1.04c0-.23.19-.4.42-.4h1.42s.43.03.43.03c.05-.03.11-.03.16-.03l1.46.03,2.84-.04,1.46.11h1.4l1.28-.08c.12-.05.26-.04.38.03.02,0,.03.02.04.03.04.02.06.04.09.07.08.1.11.23.09.37v.02l.18,1.84.04,1.86c0,.23-.17.41-.39.43l-1.24.1c-.18,0-.34-.09-.41-.25l-.93-2.11-.71.03h-1.4l-1.6-.1v.54c0,.1-.04.2-.1.28v.47l.09,2.31,2.68-.03,1.53.1c.11,0,.22.05.29.14.08.09.11.19.11.3l-.11,1.53c0,.21-.18.38-.39.38l-1.46.09-1.57-.08h-1.08s.06,1.18.06,1.18l-.05,1.52v1.25l2.81-.04,1.05.08.72-1.33.68-1.04c.07-.11.21-.19.35-.19h1.16c.11,0,.22.06.3.14.08.08.12.19.12.3"/><path class="cls-2" d="M56.45,173.3l-.11.99c-.03.2-.19.35-.39.36l-1.37.1h-1.43s-2.8-.1-2.8-.1c-.23,0-.41-.2-.4-.43v-.96c0-.19.14-.35.32-.4l1.27-.34v-.32l-.39-7.01-.28.7-.62,1.29-.82,2.62-.62,1.33-.85,2.29v.23c-.02.23-.2.4-.43.4l-2.06.02c-.17,0-.31-.1-.38-.25l-.56-1.28-.43-1.39-.49-1.29-.58-1.25-.41-1.42-.81-2.16v1.34l-.09,1.49-.19,1.5-.1,3.23,1.31.18c.23.04.38.24.37.46l-.11,1.12c-.02.22-.2.38-.42.38h0l-3.29-.08h-1.59c-.11,0-.23-.04-.3-.12-.08-.08-.12-.19-.12-.3l.03-.96c0-.18.12-.34.3-.39l1.02-.31v-.19l.2-1.46.44-7.01.05-1.69-1.29-.24c-.22-.03-.36-.23-.35-.45l.11-1.13c.03-.22.21-.38.42-.38h.04l1.72.12.42-.02s.1-.03.15-.03l2.71-.08h.02c.17,0,.34.11.39.28l1.45,4.04.37,1.39,1.07,2.56.29,1.11.12-.45.62-1.45,2.48-7.12c.06-.17.21-.27.38-.27l.59-.02c.06-.04.12-.05.19-.05l1.4-.06,1.41.04,1.35.1c.23.02.4.22.38.44l-.05.93c0,.17-.13.32-.3.37l-1.18.36.29,3.12-.02,1.41.28,2.7v1.44s.14,1.68.14,1.68l1.2.29c.21.05.34.24.31.45"/><path class="cls-2" d="M98.1,160.51l-.04.98c0,.17-.13.32-.3.38l-1,.32-.11,1.53.11,1.45-.02,1.55.02,1.5-.1,1.54v1.5l.02,2.11.09.91c0,.11-.04.24-.1.32-.09.09-.19.13-.31.14l-1.83.03h0c-.12,0-.24-.05-.32-.16l-.93-1.17-.88-1.25-.9-1.19-.87-1.24-.91-1.18-.89-1.23-1.14-1.45.1,1.15-.02,1.43.02,1.39-.1,1.85c.03.06.04.12.04.19v.67s1.4.32,1.4.32c.2.05.34.24.32.45l-.08.96c-.02.21-.19.38-.41.38l-1.66.05-3.36-.05c-.11,0-.22-.04-.3-.13-.08-.08-.12-.19-.11-.3l.03-.98c0-.18.13-.34.31-.39l1.11-.33.04-1.46-.02-1.47.04-1.5-.04-1.46.03-1.51-.08-1.47.08-1.32-1.29-.49c-.17-.07-.29-.24-.27-.43l.07-.99c.02-.23.17-.39.43-.39l1.64.04,1.43-.03c.07-.04.15-.06.24-.05.13,0,.24.08.31.19l.84,1.29.95,1.1,1.81,2.45.84,1.29,2.02,2.69-.03-1.19.02-1.44-.07-1.4.08-1.96c-.02-.05-.04-.1-.04-.17v-.68s-1.2-.31-1.2-.31c-.19-.05-.33-.24-.31-.44l.07-.96c0-.22.18-.38.4-.39l1.57-.05,3.19.05c.11,0,.22.05.3.13.08.09.12.19.11.3"/></g></svg>